:SAMPLES-PER-SECOND 30
:FULLY-SPECIFIED
:DEGREES
551
root  -43.4927 39.8205 1.08374 40.4226 86.9777 41.0956
RightUpLeg  5.73128 -8.49473 -1.55032
RightLeg  12.1765 1.68043 0.903578
RightFoot  -15.8537 -0.258879 -3.84937
RightToes  -2.32831e-009 0 -3.6325e-017
Spine  5.02524 2.09937 7.61849
Spine1  5.95537 3.67224 -5.33341
HEad  -22.5662 -3.43508 -4.05321
LeftShoulder1  -0.483317 4.74187 -32.8939
LeftArm  0.422532 10.9885 -39.2324
LeftForeArm  33.8485 -10.5736 -8.86464
LeftHand  -0.156918 9.91753 -2.50838
RightShoulder  -0.914736 -6.12724 28.295
RightArm  18.7421 8.86881 47.4283
RightForeArm  6.75098 29.7277 6.10313
RightHand  -0.377437 9.82288 -3.26806
LeftUpLeg  -17.3768 1.40179 -0.862018
LeftLeg  0.53551 0.454007 -0.548993
LeftFoot  -1.18511 0.659344 -7.34867
LeftToes  8.91272e-011 -1.70619e-011 7.36378e-012
552
root  -42.4114 39.6662 1.12157 36.968 86.654 37.5139
RightUpLeg  7.68527 -8.68095 -2.02083
RightLeg  11.7075 2.4358 1.01546
RightFoot  -17.1783 -0.29683 -3.54854
RightToes  -2.32831e-009 0 -3.6325e-017
Spine  5.00478 2.28569 6.97009
Spine1  5.76139 3.83129 -5.39923
HEad  -22.7629 -3.42005 -4.00735
LeftShoulder1  -0.470401 4.70843 -32.9039
LeftArm  -1.61277 12.8755 -38.3296
LeftForeArm  36.4191 -8.89175 -8.95376
LeftHand  -0.208671 10.2678 -3.43556
RightShoulder  -0.910944 -6.10213 28.4759
RightArm  20.2928 8.46751 47.6744
RightForeArm  6.5302 27.6178 5.60545
RightHand  -0.285137 8.88793 -2.7077
LeftUpLeg  -17.1961 1.21546 -1.19397
LeftLeg  -4.64812 3.35658 -0.925052
LeftFoot  -2.09018 0.716008 -8.67754
LeftToes  8.91272e-011 -1.70619e-011 7.36378e-012
553
root  -41.2474 39.4161 1.10668 37.3789 86.6769 38.17
RightUpLeg  10.0078 -8.9267 -2.54746
RightLeg  11.7445 2.90367 0.990022
RightFoot  -18.9659 -0.328307 -3.00103
RightToes  -2.32831e-009 0 -3.6325e-017
Spine  4.92207 2.27636 6.50704
Spine1  5.98054 3.83148 -5.46283
HEad  -23.1226 -2.79964 -3.21201
LeftShoulder1  -0.493606 4.76352 -33.0374
LeftArm  -2.43467 14.3992 -37.3288
LeftForeArm  38.0981 -7.80689 -8.96596
LeftHand  -0.299634 11.1345 -4.635
RightShoulder  -0.968761 -6.22495 29.0472
RightArm  22.2292 7.88751 47.7257
RightForeArm  5.82935 24.7927 5.01013
RightHand  -0.265249 8.60727 -2.56319
LeftUpLeg  -17.8171 0.948867 -1.68996
LeftLeg  -3.37454 5.79203 -1.10767
LeftFoot  -2.63498 0.683732 -8.69286
LeftToes  8.91272e-011 -1.70619e-011 7.36378e-012
554
root  -40.0325 39.1375 1.07884 37.9203 86.5836 39.1015
RightUpLeg  12.3678 -8.92091 -3.07649
RightLeg  12.157 3.1307 0.68786
RightFoot  -20.6968 -0.30294 -2.0028
RightToes  -2.32831e-009 0 -3.6325e-017
Spine  5.01906 2.43812 5.92052
Spine1  6.21668 4.0401 -5.44448
HEad  -22.9411 -3.39449 -2.88792
LeftShoulder1  -0.504181 4.79213 -32.9933
LeftArm  -3.07465 15.7576 -36.5886
LeftForeArm  39.5629 -7.31955 -8.78823
LeftHand  -0.347583 10.8459 -5.85381
RightShoulder  -0.943396 -6.13654 29.2629
RightArm  23.5757 6.88785 47.9662
RightForeArm  5.5571 20.998 4.78097
RightHand  -0.123657 7.74462 -1.46885
LeftUpLeg  -18.9237 0.911948 -2.45349
LeftLeg  1.87154 6.64977 -0.936023
LeftFoot  -0.294575 0.488554 -5.35501
LeftToes  8.91272e-011 -1.70619e-011 7.36378e-012
555
root  -38.7233 38.8993 1.02151 39.1603 85.8047 40.8201
RightUpLeg  14.9208 -8.78447 -4.40814
RightLeg  12.5329 4.03538 0.514582
RightFoot  -22.0268 -0.15919 -0.106471
RightToes  -2.32831e-009 0 -3.6325e-017
Spine  4.9119 2.86996 5.21119
Spine1  6.66117 4.68783 -6.03995
HEad  -22.7505 -4.01163 -2.19038
LeftShoulder1  -0.57944 4.98098 -33.0594
LeftArm  -2.72764 16.9938 -35.616
LeftForeArm  39.7049 -7.60254 -8.77767
LeftHand  -0.360899 10.8382 -6.10482
RightShoulder  -1.00991 -6.30032 29.5624
RightArm  22.0845 5.49337 48.0769
RightForeArm  8.36343 16.5136 5.98555
RightHand  -0.142707 7.98441 -1.61752
LeftUpLeg  -19.8377 1.17628 -3.82229
LeftLeg  7.24332 5.24128 -0.303958
LeftFoot  4.38274 -0.164023 1.11579
LeftToes  8.91272e-011 -1.70619e-011 7.36378e-012
556
root  -37.3579 38.6622 0.925316 39.7046 84.6355 41.9826
RightUpLeg  16.6667 -7.71749 -5.91834
RightLeg  14.7584 4.29627 0.463877
RightFoot  -22.9707 0.0731997 2.22063
RightToes  -2.32831e-009 0 -3.6325e-017
Spine  4.94649 3.39024 4.02786
Spine1  6.66987 5.19931 -6.09453
HEad  -22.2347 -3.918 -1.8437
LeftShoulder1  -0.712272 5.29048 -33.6974
LeftArm  -2.13234 17.7502 -34.2182
LeftForeArm  38.1056 -7.71322 -8.9062
LeftHand  -0.264544 10.3152 -4.69653
RightShoulder  -1.07182 -6.42421 30.1635
RightArm  19.1826 4.31006 47.6724
RightForeArm  13.9511 11.5075 7.60064
RightHand  -0.150701 6.80709 -1.78059
LeftUpLeg  -19.9726 1.82952 -5.35362
LeftLeg  11.9551 4.87643 0.819949
LeftFoot  7.84648 -0.422499 2.27946
LeftToes  8.91272e-011 -1.70619e-011 7.36378e-012
557
root  -36.0064 38.4948 0.844365 51.5328 83.9454 54.3964
RightUpLeg  17.3772 -5.56863 -7.33702
RightLeg  18.9924 2.89072 0.707947
RightFoot  -23.0042 0.469657 6.14096
RightToes  -2.32831e-009 0 -3.6325e-017
Spine  5.26974 3.43627 2.12669
Spine1  6.18419 5.17878 -6.25161
HEad  -21.5684 -3.86843 -1.26935
LeftShoulder1  -0.78229 5.45052 -34.0106
LeftArm  -2.14985 18.2292 -33.1689
LeftForeArm  37.5753 -7.9324 -8.75803
LeftHand  -0.261862 10.1235 -4.82617
RightShoulder  -1.11718 -6.46491 31.1869
RightArm  15.7019 2.26999 47.1114
RightForeArm  20.519 6.89899 8.05052
RightHand  -0.0716041 5.93071 -1.05095
LeftUpLeg  -20.1887 2.97355 -7.73907
LeftLeg  17.6112 3.15632 1.44481
LeftFoot  5.01211 -0.702188 4.67424
LeftToes  8.91272e-011 -1.70619e-011 7.36378e-012
558
root  -34.8193 38.4416 0.721138 56.5469 83.5934 59.8452
RightUpLeg  16.1658 -3.69139 -8.02982
RightLeg  25.6316 2.17554 0.961695
RightFoot  -20.5726 0.819945 12.1242
RightToes  -2.32831e-009 0 -3.6325e-017
Spine  5.92343 3.56786 1.7432
Spine1  5.84272 5.39133 -7.5203
HEad  -20.855 -4.73902 -1.09403
LeftShoulder1  -0.719147 5.30077 -33.8512
LeftArm  -3.26379 17.6203 -33.4766
LeftForeArm  37.8453 -7.09253 -8.55014
LeftHand  -0.264749 10.1115 -4.91002
RightShoulder  -1.14315 -6.51253 31.4555
RightArm  14.2261 -0.686984 46.8692
RightForeArm  24.8228 4.56248 7.49935
RightHand  0.047087 4.75534 0.235716
LeftUpLeg  -19.2962 3.22821 -8.83033
LeftLeg  20.6276 2.97308 1.58313
LeftFoot  2.22155 -0.734207 6.04135
LeftToes  8.91272e-011 -1.70619e-011 7.36378e-012
